<svg xmlns="http://www.w3.org/2000/svg" width="65" height="80" fill="none" style=""><rect id="backgroundrect" width="100%" height="100%" x="0" y="0" fill="none" stroke="none"/>

<defs>
<clipPath id="clip0_11_5150">
<rect width="80" height="80" fill="white" id="svg_1"/>
</clipPath>
</defs>
<g class="currentLayer" style=""><title>Layer 1</title><g clip-path="url(#clip0_11_5150)" id="svg_2" class="" fill="#4295e4" fill-opacity="1">
<path d="M29.280029819488526,25.9317 C29.884029819488525,26.1624 30.561729819488527,25.8588 30.792129819488522,25.2536 L31.185129819488523,24.2217 H33.957629819488524 L34.345729819488525,25.2503 C34.52282981948853,25.7195 34.96872981948852,26.0088 35.44232981948853,26.0088 C35.57982981948852,26.0088 35.719629819488524,25.9844 35.85592981948852,25.933 C36.461329819488526,25.7045 36.76702981948853,25.0284 36.53842981948853,24.4228 L33.830929819488524,17.2483 C33.82702981948852,17.2378 33.822829819488526,17.227 33.818529819488525,17.2167 C33.611729819488524,16.7133 33.126329819488525,16.3881 32.58212981948853,16.3881 C32.581829819488526,16.3881 32.58152981948852,16.3881 32.58122981948853,16.3881 C32.03652981948853,16.3884 31.551229819488526,16.7144 31.344929819488527,17.2183 C31.341429819488525,17.2273 31.337629819488527,17.2361 31.334329819488524,17.2453 L28.60202981948853,24.4195 C28.371529819488522,25.0242 28.675129819488525,25.7013 29.280029819488526,25.9317 zM33.07312981948853,21.8781 H32.07782981948853 L32.57762981948853,20.5656 L33.07312981948853,21.8781 z" fill="#4295e4" id="svg_3" fill-opacity="1"/>
<path d="M38.91212981948853,26.0085 C39.55942981948853,26.0085 40.08402981948853,25.4839 40.08402981948853,24.8366 V21.3327 L42.85882981948853,25.3508 C43.19252981948853,25.8333 43.75362981948852,26.0377 44.288329819488524,25.8708 C44.83192981948852,25.7013 45.183029819488524,25.1989 45.183029819488524,24.58 L45.11502981948853,17.5486 C45.10882981948853,16.9053 44.585429819488525,16.388 43.943529819488525,16.388 C43.93962981948852,16.388 43.93572981948853,16.388 43.93192981948852,16.388 C43.28462981948852,16.3943 42.765029819488525,16.9241 42.77132981948853,17.5711 L42.80602981948852,21.1497 L39.876529819488525,16.9075 C39.585029819488526,16.485500000000002 39.053529819488524,16.3024 38.56332981948852,16.4547 C38.07382981948852,16.6074 37.740229819488526,17.0607 37.740229819488526,17.5735 V24.8364 C37.740229819488526,25.4839 38.26472981948852,26.0085 38.91212981948853,26.0085 z" fill="#4295e4" id="svg_4" fill-opacity="1"/>
<path d="M47.83022981948852,26.0084 C48.47762981948853,26.0084 49.00212981948852,25.4839 49.00212981948852,24.8366 V23.5698 L51.18932981948853,25.68 C51.41662981948853,25.8994 51.70992981948852,26.0086 52.00272981948852,26.0086 C52.30982981948853,26.0086 52.61632981948853,25.8886 52.84622981948853,25.6503 C53.29552981948853,25.1847 53.282329819488524,24.4427 52.81652981948852,23.9934 L49.77242981948852,21.0564 L52.53762981948852,18.514499999999998 C53.014129819488524,18.0766 53.045429819488525,17.3352 52.60732981948853,16.8587 C52.16942981948853,16.3822 51.427929819488526,16.3511 50.95152981948853,16.7891 L49.001929819488524,18.5809 V17.56 C49.001929819488524,16.9127 48.47742981948853,16.3881 47.830129819488526,16.3881 C47.18272981948853,16.3881 46.658229819488525,16.9127 46.658229819488525,17.56 V24.8366 C46.65832981948853,25.4839 47.18292981948853,26.0084 47.83022981948852,26.0084 z" fill="#4295e4" id="svg_5" fill-opacity="1"/>
<path d="M20.990229819488526,26.0084 C21.637529819488524,26.0084 22.162129819488527,25.4839 22.162129819488527,24.8366 V22.2453 H24.854029819488524 V24.8366 C24.854029819488524,25.4839 25.378529819488527,26.0084 26.02582981948853,26.0084 C26.673229819488526,26.0084 27.197729819488522,25.4839 27.197729819488522,24.8366 V17.56 C27.197729819488522,16.9127 26.673229819488526,16.3881 26.02582981948853,16.3881 C25.378529819488527,16.3881 24.854029819488524,16.9127 24.854029819488524,17.56 V19.9016 H22.162129819488527 V17.56 C22.162129819488527,16.9127 21.637529819488524,16.3881 20.990229819488526,16.3881 C20.342929819488525,16.3881 19.818329819488525,16.9127 19.818329819488525,17.56 V24.8366 C19.818329819488525,25.4839 20.342929819488525,26.0084 20.990229819488526,26.0084 z" fill="#4295e4" id="svg_6" fill-opacity="1"/>
<path d="M18.233329819488524,31.64 L20.366229819488524,34.9061 L20.357929819488525,38.273 C20.356329819488526,38.9203 20.879829819488524,39.4463 21.526829819488526,39.4478 H21.529829819488526 C22.175729819488524,39.4478 22.700129819488524,38.925 22.701629819488524,38.2789 L22.709929819488526,34.908 L24.826029819488525,31.657 C25.179129819488523,31.1145 25.025729819488525,30.3886 24.483429819488524,30.0356 C23.941029819488527,29.6822 23.214929819488525,29.8359 22.861929819488527,30.3783 L21.537329819488527,32.4131 L20.195529819488524,30.3586 C19.841629819488524,29.8166 19.115829819488525,29.6645 18.573729819488527,30.0181 C18.031929819488525,30.372 17.879329819488525,31.0981 18.233329819488524,31.64 z" fill="#4295e4" id="svg_7" fill-opacity="1"/>
<path d="M36.309729819488524,36.0064 C36.309729819488524,37.1997 36.87582981948852,38.1662 37.99242981948853,38.8798 C38.58082981948853,39.2556 39.243829819488525,39.4467 39.963029819488526,39.4478 H39.96842981948853 C40.585829819488524,39.4478 41.166329819488524,39.3133 41.69382981948853,39.0475 C42.993829819488525,38.3928 43.70972981948852,37.3109 43.70972981948852,36.0011 V30.9992 C43.70972981948852,30.3519 43.18522981948853,29.8273 42.53782981948853,29.8273 C41.89052981948853,29.8273 41.36592981948853,30.3519 41.36592981948853,30.9992 V36.0011 C41.36592981948853,36.3061 41.27802981948852,36.632600000000004 40.63952981948852,36.9542 C40.439429819488524,37.0551 40.21992981948853,37.104 39.96862981948853,37.104 C39.96782981948853,37.104 39.96692981948853,37.104 39.96612981948852,37.104 C39.696329819488525,37.1037 39.46332981948853,37.0384 39.254129819488526,36.9048 C38.69922981948852,36.5503 38.653329819488526,36.2776 38.653329819488526,36.0065 V30.9994 C38.653329819488526,30.352 38.12882981948852,29.8275 37.481429819488525,29.8275 C36.834129819488524,29.8275 36.309529819488525,30.352 36.309529819488525,30.9994 V36.0064 H36.309729819488524 z" fill="#4295e4" id="svg_8" fill-opacity="1"/>
<path d="M13.344729819488524,18.7319 H14.174129819488524 V24.8366 C14.174129819488524,25.4839 14.698629819488524,26.0084 15.346029819488525,26.0084 C15.993329819488526,26.0084 16.517829819488526,25.4839 16.517829819488526,24.8366 V18.7319 H17.363329819488527 C18.010629819488525,18.7319 18.535229819488524,18.2073 18.535229819488524,17.56 C18.535229819488524,16.9127 18.010629819488525,16.3881 17.363329819488527,16.3881 H13.344729819488524 C12.697429819488526,16.3881 12.172829819488527,16.9127 12.172829819488527,17.56 C12.172829819488527,18.2073 12.697429819488526,18.7319 13.344729819488524,18.7319 z" fill="#4295e4" id="svg_9" fill-opacity="1"/>
<path d="M30.212529819488523,29.8275 C27.560129819488523,29.8275 25.40232981948853,31.9855 25.40232981948853,34.6376 C25.40232981948853,37.2898 27.560329819488523,39.4478 30.212529819488523,39.4478 C32.86502981948853,39.4478 35.02282981948853,37.2898 35.02282981948853,34.6376 C35.02282981948853,31.9855 32.86482981948853,29.8275 30.212529819488523,29.8275 zM30.212529819488523,37.104 C28.852529819488524,37.104 27.746129819488523,35.9976 27.746129819488523,34.6376 C27.746129819488523,33.2776 28.852529819488524,32.1712 30.212529819488523,32.1712 C31.572529819488523,32.1712 32.67902981948853,33.2776 32.67902981948853,34.6376 C32.67902981948853,35.9976 31.572529819488523,37.104 30.212529819488523,37.104 z" fill="#4295e4" id="svg_10" fill-opacity="1"/>
<path d="M63.37892981948852,28.0734 L59.92902981948852,24.4797 V9.46422 C59.92902981948852,7.37484 58.22922981948852,5.6748400000000006 56.13972981948852,5.6748400000000006 H41.87532981948853 C41.87172981948853,5.67109 41.86872981948853,5.66687 41.86512981948852,5.66313 L39.09222981948852,2.77469 C37.37432981948852,0.9854689999999999 35.062329819488525,0 32.582029819488525,0 C30.101729819488526,0 27.789729819488528,0.9854689999999999 26.072029819488527,2.77469 L23.287629819488526,5.675 H9.024329819488525 C6.934829819488526,5.675 5.235029819488526,7.375 5.235029819488526,9.46437 V24.48 L1.7851598194885252,28.0734 C0.6340598194885256,29.2725 -1.8051147421260794e-7,30.848300000000002 -1.8051147421260794e-7,32.5103 V76.2106 C-1.8051147421260794e-7,78.3002 1.699999819488525,80 3.7893298194885254,80 H61.37452981948853 C63.46392981948853,80 65.16392981948853,78.3002 65.16392981948853,76.2106 V32.5103 C65.16392981948853,30.848300000000002 64.53002981948852,29.2725 63.37892981948852,28.0734 zM61.68812981948852,29.6967 C62.41812981948853,30.457 62.82012981948853,31.4564 62.82012981948853,32.5105 V35.168 L59.92892981948853,38.1797 V27.8641 L61.68812981948852,29.6967 zM27.762629819488524,4.39781 C29.034329819488526,3.07328 30.745729819488524,2.34375 32.582029819488525,2.34375 C34.41832981948853,2.34375 36.129729819488524,3.07328 37.40142981948853,4.39781 L38.62732981948852,5.6748400000000006 H26.536729819488528 L27.762629819488524,4.39781 zM9.024329819488525,8.01859 H56.13952981948852 C56.93672981948852,8.01859 57.58512981948853,8.66703 57.58512981948853,9.46422 V40.6209 L45.14592981948852,53.5784 L39.091829819488524,47.2722 C37.37422981948853,45.483 35.06222981948853,44.4975 32.581829819488526,44.4975 C30.101529819488526,44.4975 27.78952981948853,45.483 26.071829819488528,47.2722 L20.017829819488526,53.5784 L7.578629819488526,40.6209 V9.46422 C7.578729819488526,8.66719 8.227329819488526,8.01859 9.024329819488525,8.01859 zM18.393629819488524,55.2706 L2.343909819488525,71.9891 V38.5522 L18.393629819488524,55.2706 zM2.343909819488525,32.5103 C2.343909819488525,31.4562 2.7459298194885253,30.4569 3.4759298194885258,29.6966 L5.235129819488526,27.8641 V38.1794 L2.343909819488525,35.1677 V32.5103 zM61.37452981948853,77.6562 H3.789529819488525 C2.992329819488525,77.6562 2.343909819488525,77.0078 2.343909819488525,76.2106 V75.3733 L27.762829819488523,48.8953 C29.034529819488526,47.5706 30.745929819488524,46.8412 32.582229819488525,46.8412 C34.41842981948852,46.8412 36.12982981948853,47.5708 37.40152981948852,48.8953 L46.81372981948853,58.6997 C47.262029819488525,59.1667 48.00372981948853,59.181400000000004 48.47062981948852,58.7334 C48.937329819488525,58.2853 48.95262981948853,57.5434 48.504329819488525,57.0766 L46.770629819488526,55.2706 L62.82032981948852,38.5522 V71.9891 L52.27342981948853,61.0028 C51.825129819488524,60.5359 51.08342981948852,60.5209 50.61652981948853,60.9691 C50.149829819488524,61.4172 50.13452981948853,62.1591 50.58282981948852,62.6259 L62.82032981948852,75.3733 V76.2105 C62.82012981948853,77.0078 62.17172981948852,77.6562 61.37452981948853,77.6562 z" fill="#4295e4" id="svg_11" fill-opacity="1"/>
</g></g></svg>