<svg width="51" height="42" viewBox="0 0 51 42" fill="none" xmlns="http://www.w3.org/2000/svg">
<path d="M18.3452 13.0722H22.4V21.3728C20.1254 23.9242 16.8618 25.2 12.6093 25.2C9.01603 25.2 6.01618 24.0071 3.60971 21.6213C1.20324 19.2355 0 16.2532 0 12.6745C0 9.09585 1.21972 6.09703 3.65916 3.6781C6.13156 1.22603 9.11493 0 12.6093 0C16.1036 0 19.0045 1.01065 21.3121 3.03195L19.1364 6.16331C17.4552 4.73846 15.3948 4.02603 12.9554 4.02603C10.483 4.02603 8.40617 4.83786 6.72494 6.46153C5.07667 8.05206 4.25254 10.1231 4.25254 12.6745C4.25254 15.226 5.0437 17.297 6.62604 18.8876C8.24135 20.445 10.2358 21.2236 12.6093 21.2236C14.9168 21.2236 16.8288 20.7266 18.3452 19.7325V13.0722Z" fill="#161C24"/>
<line x1="27.1001" y1="2.18557e-08" x2="27.1001" y2="16.8" stroke="#161C24"/>
<line x1="27.1001" y1="16.7998" x2="27.1001" y2="33.5998" stroke="#4295E4"/>
<path d="M41.4197 41.9998C37.4866 41.9998 33.9468 40.7748 30.8003 38.3248L33.2913 34.3217C36.0881 36.4654 38.8413 37.5373 41.5508 37.5373C42.687 37.5373 43.5829 37.2748 44.2384 36.7498C44.9376 36.181 45.2872 35.481 45.2872 34.6498C45.2872 33.4248 43.6703 32.331 40.4364 31.3685C40.349 31.3248 40.2398 31.281 40.1086 31.2373C40.0212 31.1935 39.9557 31.1717 39.912 31.1717C34.8427 29.8154 32.308 27.5185 32.308 24.281C32.308 22.006 33.1602 20.1904 34.8645 18.8342C36.6126 17.4779 38.9069 16.7998 41.7474 16.7998C44.5443 16.7998 47.2101 17.6311 49.7448 19.2936L47.8438 23.0998C45.8772 21.7873 43.714 21.1311 41.3541 21.1311C38.601 21.1311 37.2244 22.006 37.2244 23.756C37.2244 24.4998 37.4866 25.0467 38.011 25.3967C38.5791 25.7029 39.4968 26.0092 40.7642 26.3154C42.687 26.8404 44.304 27.3654 45.615 27.8904C46.489 28.2842 47.2538 28.6998 47.9093 29.1373C49.57 30.2748 50.4003 32.0029 50.4003 34.3217C50.4003 36.5967 49.5481 38.456 47.8438 39.8998C46.1831 41.2998 44.0418 41.9998 41.4197 41.9998Z" fill="#4295E4"/>
</svg>
